<mxfile host="app.diagrams.net" modified="2024-03-10T23:29:37.799Z" agent="Mozilla/5.0 (Macintosh; Intel Mac OS X 10_15_7) AppleWebKit/537.36 (KHTML, like Gecko) Chrome/122.0.0.0 Safari/537.36" etag="XwgtglPm1nX0gTrYnDTJ" version="24.0.2" type="github">
  <diagram id="R2lEEEUBdFMjLlhIrx00" name="Page-1">
    <mxGraphModel dx="954" dy="606" grid="0" gridSize="10" guides="1" tooltips="1" connect="1" arrows="1" fold="1" page="1" pageScale="1" pageWidth="850" pageHeight="1100" math="0" shadow="0" extFonts="Permanent Marker^https://fonts.googleapis.com/css?family=Permanent+Marker">
      <root>
        <mxCell id="0" />
        <mxCell id="1" parent="0" />
        <mxCell id="C-vyLk0tnHw3VtMMgP7b-2" value="Staff" style="shape=table;startSize=30;container=1;collapsible=1;childLayout=tableLayout;fixedRows=1;rowLines=0;fontStyle=1;align=center;resizeLast=1;" parent="1" vertex="1">
          <mxGeometry x="470" y="90" width="250" height="300" as="geometry" />
        </mxCell>
        <mxCell id="C-vyLk0tnHw3VtMMgP7b-3" value="" style="shape=partialRectangle;collapsible=0;dropTarget=0;pointerEvents=0;fillColor=none;points=[[0,0.5],[1,0.5]];portConstraint=eastwest;top=0;left=0;right=0;bottom=1;" parent="C-vyLk0tnHw3VtMMgP7b-2" vertex="1">
          <mxGeometry y="30" width="250" height="30" as="geometry" />
        </mxCell>
        <mxCell id="C-vyLk0tnHw3VtMMgP7b-4" value="PK" style="shape=partialRectangle;overflow=hidden;connectable=0;fillColor=none;top=0;left=0;bottom=0;right=0;fontStyle=1;" parent="C-vyLk0tnHw3VtMMgP7b-3" vertex="1">
          <mxGeometry width="30" height="30" as="geometry">
            <mxRectangle width="30" height="30" as="alternateBounds" />
          </mxGeometry>
        </mxCell>
        <mxCell id="C-vyLk0tnHw3VtMMgP7b-5" value="staffId" style="shape=partialRectangle;overflow=hidden;connectable=0;fillColor=none;top=0;left=0;bottom=0;right=0;align=left;spacingLeft=6;fontStyle=5;" parent="C-vyLk0tnHw3VtMMgP7b-3" vertex="1">
          <mxGeometry x="30" width="220" height="30" as="geometry">
            <mxRectangle width="220" height="30" as="alternateBounds" />
          </mxGeometry>
        </mxCell>
        <mxCell id="C-vyLk0tnHw3VtMMgP7b-6" value="" style="shape=partialRectangle;collapsible=0;dropTarget=0;pointerEvents=0;fillColor=none;points=[[0,0.5],[1,0.5]];portConstraint=eastwest;top=0;left=0;right=0;bottom=0;" parent="C-vyLk0tnHw3VtMMgP7b-2" vertex="1">
          <mxGeometry y="60" width="250" height="200" as="geometry" />
        </mxCell>
        <mxCell id="C-vyLk0tnHw3VtMMgP7b-7" value="" style="shape=partialRectangle;overflow=hidden;connectable=0;fillColor=none;top=0;left=0;bottom=0;right=0;" parent="C-vyLk0tnHw3VtMMgP7b-6" vertex="1">
          <mxGeometry width="30" height="200" as="geometry">
            <mxRectangle width="30" height="200" as="alternateBounds" />
          </mxGeometry>
        </mxCell>
        <mxCell id="C-vyLk0tnHw3VtMMgP7b-8" value="name&#xa;    lname&#xa;    fname&#xa;position&#xa;address&#xa;    city&#xa;    zipcode&#xa;SSN&#xa;phoneNumber&#xa;gender&#xa;dob&#xa;salary&#xa;" style="shape=partialRectangle;overflow=hidden;connectable=0;fillColor=none;top=0;left=0;bottom=0;right=0;align=left;spacingLeft=6;" parent="C-vyLk0tnHw3VtMMgP7b-6" vertex="1">
          <mxGeometry x="30" width="220" height="200" as="geometry">
            <mxRectangle width="220" height="200" as="alternateBounds" />
          </mxGeometry>
        </mxCell>
        <mxCell id="C-vyLk0tnHw3VtMMgP7b-9" value="" style="shape=partialRectangle;collapsible=0;dropTarget=0;pointerEvents=0;fillColor=none;points=[[0,0.5],[1,0.5]];portConstraint=eastwest;top=0;left=0;right=0;bottom=0;" parent="C-vyLk0tnHw3VtMMgP7b-2" vertex="1">
          <mxGeometry y="260" width="250" height="40" as="geometry" />
        </mxCell>
        <mxCell id="C-vyLk0tnHw3VtMMgP7b-10" value="" style="shape=partialRectangle;overflow=hidden;connectable=0;fillColor=none;top=0;left=0;bottom=0;right=0;" parent="C-vyLk0tnHw3VtMMgP7b-9" vertex="1">
          <mxGeometry width="30" height="40" as="geometry">
            <mxRectangle width="30" height="40" as="alternateBounds" />
          </mxGeometry>
        </mxCell>
        <mxCell id="C-vyLk0tnHw3VtMMgP7b-11" value="" style="shape=partialRectangle;overflow=hidden;connectable=0;fillColor=none;top=0;left=0;bottom=0;right=0;align=left;spacingLeft=6;" parent="C-vyLk0tnHw3VtMMgP7b-9" vertex="1">
          <mxGeometry x="30" width="220" height="40" as="geometry">
            <mxRectangle width="220" height="40" as="alternateBounds" />
          </mxGeometry>
        </mxCell>
        <mxCell id="C-vyLk0tnHw3VtMMgP7b-23" value="Office" style="shape=table;startSize=30;container=1;collapsible=1;childLayout=tableLayout;fixedRows=1;rowLines=0;fontStyle=1;align=center;resizeLast=1;" parent="1" vertex="1">
          <mxGeometry x="40" y="90" width="270" height="200" as="geometry" />
        </mxCell>
        <mxCell id="C-vyLk0tnHw3VtMMgP7b-24" value="" style="shape=partialRectangle;collapsible=0;dropTarget=0;pointerEvents=0;fillColor=none;points=[[0,0.5],[1,0.5]];portConstraint=eastwest;top=0;left=0;right=0;bottom=1;" parent="C-vyLk0tnHw3VtMMgP7b-23" vertex="1">
          <mxGeometry y="30" width="270" height="30" as="geometry" />
        </mxCell>
        <mxCell id="C-vyLk0tnHw3VtMMgP7b-25" value="PK" style="shape=partialRectangle;overflow=hidden;connectable=0;fillColor=none;top=0;left=0;bottom=0;right=0;fontStyle=1;" parent="C-vyLk0tnHw3VtMMgP7b-24" vertex="1">
          <mxGeometry width="30" height="30" as="geometry">
            <mxRectangle width="30" height="30" as="alternateBounds" />
          </mxGeometry>
        </mxCell>
        <mxCell id="C-vyLk0tnHw3VtMMgP7b-26" value="officeId&#xa;" style="shape=partialRectangle;overflow=hidden;connectable=0;fillColor=none;top=0;left=0;bottom=0;right=0;align=left;spacingLeft=6;fontStyle=5;" parent="C-vyLk0tnHw3VtMMgP7b-24" vertex="1">
          <mxGeometry x="30" width="240" height="30" as="geometry">
            <mxRectangle width="240" height="30" as="alternateBounds" />
          </mxGeometry>
        </mxCell>
        <mxCell id="C-vyLk0tnHw3VtMMgP7b-27" value="" style="shape=partialRectangle;collapsible=0;dropTarget=0;pointerEvents=0;fillColor=none;points=[[0,0.5],[1,0.5]];portConstraint=eastwest;top=0;left=0;right=0;bottom=0;" parent="C-vyLk0tnHw3VtMMgP7b-23" vertex="1">
          <mxGeometry y="60" width="270" height="100" as="geometry" />
        </mxCell>
        <mxCell id="C-vyLk0tnHw3VtMMgP7b-28" value="" style="shape=partialRectangle;overflow=hidden;connectable=0;fillColor=none;top=0;left=0;bottom=0;right=0;" parent="C-vyLk0tnHw3VtMMgP7b-27" vertex="1">
          <mxGeometry width="30" height="100" as="geometry">
            <mxRectangle width="30" height="100" as="alternateBounds" />
          </mxGeometry>
        </mxCell>
        <mxCell id="C-vyLk0tnHw3VtMMgP7b-29" value="officeName&#xa;address&#xa;    city&#xa;    zipcode&#xa;  phone&#xa;  email&#xa;&#xa;" style="shape=partialRectangle;overflow=hidden;connectable=0;fillColor=none;top=0;left=0;bottom=0;right=0;align=left;spacingLeft=6;" parent="C-vyLk0tnHw3VtMMgP7b-27" vertex="1">
          <mxGeometry x="30" width="240" height="100" as="geometry">
            <mxRectangle width="240" height="100" as="alternateBounds" />
          </mxGeometry>
        </mxCell>
        <mxCell id="NRWMTkdjOO6M37qrP40V-1" value="Client" style="shape=table;startSize=30;container=1;collapsible=1;childLayout=tableLayout;fixedRows=1;rowLines=0;fontStyle=1;align=center;resizeLast=1;" vertex="1" parent="1">
          <mxGeometry x="50" y="550" width="270" height="200" as="geometry" />
        </mxCell>
        <mxCell id="NRWMTkdjOO6M37qrP40V-2" value="" style="shape=partialRectangle;collapsible=0;dropTarget=0;pointerEvents=0;fillColor=none;points=[[0,0.5],[1,0.5]];portConstraint=eastwest;top=0;left=0;right=0;bottom=1;" vertex="1" parent="NRWMTkdjOO6M37qrP40V-1">
          <mxGeometry y="30" width="270" height="30" as="geometry" />
        </mxCell>
        <mxCell id="NRWMTkdjOO6M37qrP40V-3" value="PK" style="shape=partialRectangle;overflow=hidden;connectable=0;fillColor=none;top=0;left=0;bottom=0;right=0;fontStyle=1;" vertex="1" parent="NRWMTkdjOO6M37qrP40V-2">
          <mxGeometry width="30" height="30" as="geometry">
            <mxRectangle width="30" height="30" as="alternateBounds" />
          </mxGeometry>
        </mxCell>
        <mxCell id="NRWMTkdjOO6M37qrP40V-4" value="clientId" style="shape=partialRectangle;overflow=hidden;connectable=0;fillColor=none;top=0;left=0;bottom=0;right=0;align=left;spacingLeft=6;fontStyle=5;" vertex="1" parent="NRWMTkdjOO6M37qrP40V-2">
          <mxGeometry x="30" width="240" height="30" as="geometry">
            <mxRectangle width="240" height="30" as="alternateBounds" />
          </mxGeometry>
        </mxCell>
        <mxCell id="NRWMTkdjOO6M37qrP40V-5" value="" style="shape=partialRectangle;collapsible=0;dropTarget=0;pointerEvents=0;fillColor=none;points=[[0,0.5],[1,0.5]];portConstraint=eastwest;top=0;left=0;right=0;bottom=0;" vertex="1" parent="NRWMTkdjOO6M37qrP40V-1">
          <mxGeometry y="60" width="270" height="120" as="geometry" />
        </mxCell>
        <mxCell id="NRWMTkdjOO6M37qrP40V-6" value="" style="shape=partialRectangle;overflow=hidden;connectable=0;fillColor=none;top=0;left=0;bottom=0;right=0;" vertex="1" parent="NRWMTkdjOO6M37qrP40V-5">
          <mxGeometry width="30" height="120" as="geometry">
            <mxRectangle width="30" height="120" as="alternateBounds" />
          </mxGeometry>
        </mxCell>
        <mxCell id="NRWMTkdjOO6M37qrP40V-7" value="name&#xa;    lname&#xa;    fname&#xa;address&#xa;    city&#xa;    zipcode&#xa;phone&#xa;dob&#xa;    &#xa;&#xa;" style="shape=partialRectangle;overflow=hidden;connectable=0;fillColor=none;top=0;left=0;bottom=0;right=0;align=left;spacingLeft=6;" vertex="1" parent="NRWMTkdjOO6M37qrP40V-5">
          <mxGeometry x="30" width="240" height="120" as="geometry">
            <mxRectangle width="240" height="120" as="alternateBounds" />
          </mxGeometry>
        </mxCell>
        <mxCell id="NRWMTkdjOO6M37qrP40V-8" value="Registration" style="shape=table;startSize=30;container=1;collapsible=1;childLayout=tableLayout;fixedRows=1;rowLines=0;fontStyle=1;align=center;resizeLast=1;" vertex="1" parent="1">
          <mxGeometry x="358" y="467" width="270" height="160" as="geometry" />
        </mxCell>
        <mxCell id="NRWMTkdjOO6M37qrP40V-9" value="" style="shape=partialRectangle;collapsible=0;dropTarget=0;pointerEvents=0;fillColor=none;points=[[0,0.5],[1,0.5]];portConstraint=eastwest;top=0;left=0;right=0;bottom=1;" vertex="1" parent="NRWMTkdjOO6M37qrP40V-8">
          <mxGeometry y="30" width="270" height="30" as="geometry" />
        </mxCell>
        <mxCell id="NRWMTkdjOO6M37qrP40V-10" value="PK" style="shape=partialRectangle;overflow=hidden;connectable=0;fillColor=none;top=0;left=0;bottom=0;right=0;fontStyle=1;" vertex="1" parent="NRWMTkdjOO6M37qrP40V-9">
          <mxGeometry width="30" height="30" as="geometry">
            <mxRectangle width="30" height="30" as="alternateBounds" />
          </mxGeometry>
        </mxCell>
        <mxCell id="NRWMTkdjOO6M37qrP40V-11" value="formNo" style="shape=partialRectangle;overflow=hidden;connectable=0;fillColor=none;top=0;left=0;bottom=0;right=0;align=left;spacingLeft=6;fontStyle=5;" vertex="1" parent="NRWMTkdjOO6M37qrP40V-9">
          <mxGeometry x="30" width="240" height="30" as="geometry">
            <mxRectangle width="240" height="30" as="alternateBounds" />
          </mxGeometry>
        </mxCell>
        <mxCell id="NRWMTkdjOO6M37qrP40V-12" value="" style="shape=partialRectangle;collapsible=0;dropTarget=0;pointerEvents=0;fillColor=none;points=[[0,0.5],[1,0.5]];portConstraint=eastwest;top=0;left=0;right=0;bottom=0;" vertex="1" parent="NRWMTkdjOO6M37qrP40V-8">
          <mxGeometry y="60" width="270" height="80" as="geometry" />
        </mxCell>
        <mxCell id="NRWMTkdjOO6M37qrP40V-13" value="" style="shape=partialRectangle;overflow=hidden;connectable=0;fillColor=none;top=0;left=0;bottom=0;right=0;" vertex="1" parent="NRWMTkdjOO6M37qrP40V-12">
          <mxGeometry width="30" height="80" as="geometry">
            <mxRectangle width="30" height="80" as="alternateBounds" />
          </mxGeometry>
        </mxCell>
        <mxCell id="NRWMTkdjOO6M37qrP40V-14" value="registrationDate    &#xa;&#xa;" style="shape=partialRectangle;overflow=hidden;connectable=0;fillColor=none;top=0;left=0;bottom=0;right=0;align=left;spacingLeft=6;" vertex="1" parent="NRWMTkdjOO6M37qrP40V-12">
          <mxGeometry x="30" width="240" height="80" as="geometry">
            <mxRectangle width="240" height="80" as="alternateBounds" />
          </mxGeometry>
        </mxCell>
        <mxCell id="NRWMTkdjOO6M37qrP40V-15" value="Car" style="shape=table;startSize=30;container=1;collapsible=1;childLayout=tableLayout;fixedRows=1;rowLines=0;fontStyle=1;align=center;resizeLast=1;" vertex="1" parent="1">
          <mxGeometry x="826" y="96" width="270" height="160" as="geometry" />
        </mxCell>
        <mxCell id="NRWMTkdjOO6M37qrP40V-16" value="" style="shape=partialRectangle;collapsible=0;dropTarget=0;pointerEvents=0;fillColor=none;points=[[0,0.5],[1,0.5]];portConstraint=eastwest;top=0;left=0;right=0;bottom=1;" vertex="1" parent="NRWMTkdjOO6M37qrP40V-15">
          <mxGeometry y="30" width="270" height="30" as="geometry" />
        </mxCell>
        <mxCell id="NRWMTkdjOO6M37qrP40V-17" value="PK" style="shape=partialRectangle;overflow=hidden;connectable=0;fillColor=none;top=0;left=0;bottom=0;right=0;fontStyle=1;" vertex="1" parent="NRWMTkdjOO6M37qrP40V-16">
          <mxGeometry width="30" height="30" as="geometry">
            <mxRectangle width="30" height="30" as="alternateBounds" />
          </mxGeometry>
        </mxCell>
        <mxCell id="NRWMTkdjOO6M37qrP40V-18" value="carId" style="shape=partialRectangle;overflow=hidden;connectable=0;fillColor=none;top=0;left=0;bottom=0;right=0;align=left;spacingLeft=6;fontStyle=5;" vertex="1" parent="NRWMTkdjOO6M37qrP40V-16">
          <mxGeometry x="30" width="240" height="30" as="geometry">
            <mxRectangle width="240" height="30" as="alternateBounds" />
          </mxGeometry>
        </mxCell>
        <mxCell id="NRWMTkdjOO6M37qrP40V-19" value="" style="shape=partialRectangle;collapsible=0;dropTarget=0;pointerEvents=0;fillColor=none;points=[[0,0.5],[1,0.5]];portConstraint=eastwest;top=0;left=0;right=0;bottom=0;" vertex="1" parent="NRWMTkdjOO6M37qrP40V-15">
          <mxGeometry y="60" width="270" height="80" as="geometry" />
        </mxCell>
        <mxCell id="NRWMTkdjOO6M37qrP40V-20" value="" style="shape=partialRectangle;overflow=hidden;connectable=0;fillColor=none;top=0;left=0;bottom=0;right=0;" vertex="1" parent="NRWMTkdjOO6M37qrP40V-19">
          <mxGeometry width="30" height="80" as="geometry">
            <mxRectangle width="30" height="80" as="alternateBounds" />
          </mxGeometry>
        </mxCell>
        <mxCell id="NRWMTkdjOO6M37qrP40V-21" value="licenseNo&#xa;make&#xa;model&#xa;year" style="shape=partialRectangle;overflow=hidden;connectable=0;fillColor=none;top=0;left=0;bottom=0;right=0;align=left;spacingLeft=6;" vertex="1" parent="NRWMTkdjOO6M37qrP40V-19">
          <mxGeometry x="30" width="240" height="80" as="geometry">
            <mxRectangle width="240" height="80" as="alternateBounds" />
          </mxGeometry>
        </mxCell>
        <mxCell id="NRWMTkdjOO6M37qrP40V-22" value="Inspection" style="shape=table;startSize=30;container=1;collapsible=1;childLayout=tableLayout;fixedRows=1;rowLines=0;fontStyle=1;align=center;resizeLast=1;" vertex="1" parent="1">
          <mxGeometry x="821" y="337" width="270" height="140" as="geometry" />
        </mxCell>
        <mxCell id="NRWMTkdjOO6M37qrP40V-23" value="" style="shape=partialRectangle;collapsible=0;dropTarget=0;pointerEvents=0;fillColor=none;points=[[0,0.5],[1,0.5]];portConstraint=eastwest;top=0;left=0;right=0;bottom=1;" vertex="1" parent="NRWMTkdjOO6M37qrP40V-22">
          <mxGeometry y="30" width="270" height="30" as="geometry" />
        </mxCell>
        <mxCell id="NRWMTkdjOO6M37qrP40V-24" value="PK" style="shape=partialRectangle;overflow=hidden;connectable=0;fillColor=none;top=0;left=0;bottom=0;right=0;fontStyle=1;" vertex="1" parent="NRWMTkdjOO6M37qrP40V-23">
          <mxGeometry width="30" height="30" as="geometry">
            <mxRectangle width="30" height="30" as="alternateBounds" />
          </mxGeometry>
        </mxCell>
        <mxCell id="NRWMTkdjOO6M37qrP40V-25" value="inspectionid" style="shape=partialRectangle;overflow=hidden;connectable=0;fillColor=none;top=0;left=0;bottom=0;right=0;align=left;spacingLeft=6;fontStyle=5;" vertex="1" parent="NRWMTkdjOO6M37qrP40V-23">
          <mxGeometry x="30" width="240" height="30" as="geometry">
            <mxRectangle width="240" height="30" as="alternateBounds" />
          </mxGeometry>
        </mxCell>
        <mxCell id="NRWMTkdjOO6M37qrP40V-26" value="" style="shape=partialRectangle;collapsible=0;dropTarget=0;pointerEvents=0;fillColor=none;points=[[0,0.5],[1,0.5]];portConstraint=eastwest;top=0;left=0;right=0;bottom=0;" vertex="1" parent="NRWMTkdjOO6M37qrP40V-22">
          <mxGeometry y="60" width="270" height="80" as="geometry" />
        </mxCell>
        <mxCell id="NRWMTkdjOO6M37qrP40V-27" value="" style="shape=partialRectangle;overflow=hidden;connectable=0;fillColor=none;top=0;left=0;bottom=0;right=0;" vertex="1" parent="NRWMTkdjOO6M37qrP40V-26">
          <mxGeometry width="30" height="80" as="geometry">
            <mxRectangle width="30" height="80" as="alternateBounds" />
          </mxGeometry>
        </mxCell>
        <mxCell id="NRWMTkdjOO6M37qrP40V-28" value="inspectionDate&#xa;inspectionComment" style="shape=partialRectangle;overflow=hidden;connectable=0;fillColor=none;top=0;left=0;bottom=0;right=0;align=left;spacingLeft=6;" vertex="1" parent="NRWMTkdjOO6M37qrP40V-26">
          <mxGeometry x="30" width="240" height="80" as="geometry">
            <mxRectangle width="240" height="80" as="alternateBounds" />
          </mxGeometry>
        </mxCell>
        <mxCell id="NRWMTkdjOO6M37qrP40V-29" value="Lesson" style="shape=table;startSize=30;container=1;collapsible=1;childLayout=tableLayout;fixedRows=1;rowLines=0;fontStyle=1;align=center;resizeLast=1;" vertex="1" parent="1">
          <mxGeometry x="50" y="800" width="270" height="140" as="geometry" />
        </mxCell>
        <mxCell id="NRWMTkdjOO6M37qrP40V-30" value="" style="shape=partialRectangle;collapsible=0;dropTarget=0;pointerEvents=0;fillColor=none;points=[[0,0.5],[1,0.5]];portConstraint=eastwest;top=0;left=0;right=0;bottom=1;" vertex="1" parent="NRWMTkdjOO6M37qrP40V-29">
          <mxGeometry y="30" width="270" height="30" as="geometry" />
        </mxCell>
        <mxCell id="NRWMTkdjOO6M37qrP40V-31" value="PK" style="shape=partialRectangle;overflow=hidden;connectable=0;fillColor=none;top=0;left=0;bottom=0;right=0;fontStyle=1;" vertex="1" parent="NRWMTkdjOO6M37qrP40V-30">
          <mxGeometry width="30" height="30" as="geometry">
            <mxRectangle width="30" height="30" as="alternateBounds" />
          </mxGeometry>
        </mxCell>
        <mxCell id="NRWMTkdjOO6M37qrP40V-32" value="lessonId" style="shape=partialRectangle;overflow=hidden;connectable=0;fillColor=none;top=0;left=0;bottom=0;right=0;align=left;spacingLeft=6;fontStyle=5;" vertex="1" parent="NRWMTkdjOO6M37qrP40V-30">
          <mxGeometry x="30" width="240" height="30" as="geometry">
            <mxRectangle width="240" height="30" as="alternateBounds" />
          </mxGeometry>
        </mxCell>
        <mxCell id="NRWMTkdjOO6M37qrP40V-33" value="" style="shape=partialRectangle;collapsible=0;dropTarget=0;pointerEvents=0;fillColor=none;points=[[0,0.5],[1,0.5]];portConstraint=eastwest;top=0;left=0;right=0;bottom=0;" vertex="1" parent="NRWMTkdjOO6M37qrP40V-29">
          <mxGeometry y="60" width="270" height="80" as="geometry" />
        </mxCell>
        <mxCell id="NRWMTkdjOO6M37qrP40V-34" value="" style="shape=partialRectangle;overflow=hidden;connectable=0;fillColor=none;top=0;left=0;bottom=0;right=0;" vertex="1" parent="NRWMTkdjOO6M37qrP40V-33">
          <mxGeometry width="30" height="80" as="geometry">
            <mxRectangle width="30" height="80" as="alternateBounds" />
          </mxGeometry>
        </mxCell>
        <mxCell id="NRWMTkdjOO6M37qrP40V-35" value="date&#xa;starttime&#xa;topicCovered" style="shape=partialRectangle;overflow=hidden;connectable=0;fillColor=none;top=0;left=0;bottom=0;right=0;align=left;spacingLeft=6;" vertex="1" parent="NRWMTkdjOO6M37qrP40V-33">
          <mxGeometry x="30" width="240" height="80" as="geometry">
            <mxRectangle width="240" height="80" as="alternateBounds" />
          </mxGeometry>
        </mxCell>
        <mxCell id="NRWMTkdjOO6M37qrP40V-36" value="ProgressRecord" style="shape=table;startSize=30;container=1;collapsible=1;childLayout=tableLayout;fixedRows=1;rowLines=0;fontStyle=1;align=center;resizeLast=1;" vertex="1" parent="1">
          <mxGeometry x="490" y="810" width="270" height="140" as="geometry" />
        </mxCell>
        <mxCell id="NRWMTkdjOO6M37qrP40V-37" value="" style="shape=partialRectangle;collapsible=0;dropTarget=0;pointerEvents=0;fillColor=none;points=[[0,0.5],[1,0.5]];portConstraint=eastwest;top=0;left=0;right=0;bottom=1;" vertex="1" parent="NRWMTkdjOO6M37qrP40V-36">
          <mxGeometry y="30" width="270" height="30" as="geometry" />
        </mxCell>
        <mxCell id="NRWMTkdjOO6M37qrP40V-38" value="" style="shape=partialRectangle;overflow=hidden;connectable=0;fillColor=none;top=0;left=0;bottom=0;right=0;fontStyle=1;" vertex="1" parent="NRWMTkdjOO6M37qrP40V-37">
          <mxGeometry width="30" height="30" as="geometry">
            <mxRectangle width="30" height="30" as="alternateBounds" />
          </mxGeometry>
        </mxCell>
        <mxCell id="NRWMTkdjOO6M37qrP40V-39" value="" style="shape=partialRectangle;overflow=hidden;connectable=0;fillColor=none;top=0;left=0;bottom=0;right=0;align=left;spacingLeft=6;fontStyle=5;" vertex="1" parent="NRWMTkdjOO6M37qrP40V-37">
          <mxGeometry x="30" width="240" height="30" as="geometry">
            <mxRectangle width="240" height="30" as="alternateBounds" />
          </mxGeometry>
        </mxCell>
        <mxCell id="NRWMTkdjOO6M37qrP40V-40" value="" style="shape=partialRectangle;collapsible=0;dropTarget=0;pointerEvents=0;fillColor=none;points=[[0,0.5],[1,0.5]];portConstraint=eastwest;top=0;left=0;right=0;bottom=0;" vertex="1" parent="NRWMTkdjOO6M37qrP40V-36">
          <mxGeometry y="60" width="270" height="80" as="geometry" />
        </mxCell>
        <mxCell id="NRWMTkdjOO6M37qrP40V-41" value="" style="shape=partialRectangle;overflow=hidden;connectable=0;fillColor=none;top=0;left=0;bottom=0;right=0;" vertex="1" parent="NRWMTkdjOO6M37qrP40V-40">
          <mxGeometry width="30" height="80" as="geometry">
            <mxRectangle width="30" height="80" as="alternateBounds" />
          </mxGeometry>
        </mxCell>
        <mxCell id="NRWMTkdjOO6M37qrP40V-42" value="mileage&#xa;instructorComments" style="shape=partialRectangle;overflow=hidden;connectable=0;fillColor=none;top=0;left=0;bottom=0;right=0;align=left;spacingLeft=6;" vertex="1" parent="NRWMTkdjOO6M37qrP40V-40">
          <mxGeometry x="30" width="240" height="80" as="geometry">
            <mxRectangle width="240" height="80" as="alternateBounds" />
          </mxGeometry>
        </mxCell>
        <mxCell id="NRWMTkdjOO6M37qrP40V-43" value="DrivingTest" style="shape=table;startSize=30;container=1;collapsible=1;childLayout=tableLayout;fixedRows=1;rowLines=0;fontStyle=1;align=center;resizeLast=1;" vertex="1" parent="1">
          <mxGeometry x="30" y="1000" width="270" height="140" as="geometry" />
        </mxCell>
        <mxCell id="NRWMTkdjOO6M37qrP40V-44" value="" style="shape=partialRectangle;collapsible=0;dropTarget=0;pointerEvents=0;fillColor=none;points=[[0,0.5],[1,0.5]];portConstraint=eastwest;top=0;left=0;right=0;bottom=1;" vertex="1" parent="NRWMTkdjOO6M37qrP40V-43">
          <mxGeometry y="30" width="270" height="30" as="geometry" />
        </mxCell>
        <mxCell id="NRWMTkdjOO6M37qrP40V-45" value="PK" style="shape=partialRectangle;overflow=hidden;connectable=0;fillColor=none;top=0;left=0;bottom=0;right=0;fontStyle=1;" vertex="1" parent="NRWMTkdjOO6M37qrP40V-44">
          <mxGeometry width="30" height="30" as="geometry">
            <mxRectangle width="30" height="30" as="alternateBounds" />
          </mxGeometry>
        </mxCell>
        <mxCell id="NRWMTkdjOO6M37qrP40V-46" value="testId" style="shape=partialRectangle;overflow=hidden;connectable=0;fillColor=none;top=0;left=0;bottom=0;right=0;align=left;spacingLeft=6;fontStyle=5;" vertex="1" parent="NRWMTkdjOO6M37qrP40V-44">
          <mxGeometry x="30" width="240" height="30" as="geometry">
            <mxRectangle width="240" height="30" as="alternateBounds" />
          </mxGeometry>
        </mxCell>
        <mxCell id="NRWMTkdjOO6M37qrP40V-47" value="" style="shape=partialRectangle;collapsible=0;dropTarget=0;pointerEvents=0;fillColor=none;points=[[0,0.5],[1,0.5]];portConstraint=eastwest;top=0;left=0;right=0;bottom=0;" vertex="1" parent="NRWMTkdjOO6M37qrP40V-43">
          <mxGeometry y="60" width="270" height="80" as="geometry" />
        </mxCell>
        <mxCell id="NRWMTkdjOO6M37qrP40V-48" value="" style="shape=partialRectangle;overflow=hidden;connectable=0;fillColor=none;top=0;left=0;bottom=0;right=0;" vertex="1" parent="NRWMTkdjOO6M37qrP40V-47">
          <mxGeometry width="30" height="80" as="geometry">
            <mxRectangle width="30" height="80" as="alternateBounds" />
          </mxGeometry>
        </mxCell>
        <mxCell id="NRWMTkdjOO6M37qrP40V-49" value="writtenScore&#xa;drivingScore&#xa;testDate&#xa;testTime" style="shape=partialRectangle;overflow=hidden;connectable=0;fillColor=none;top=0;left=0;bottom=0;right=0;align=left;spacingLeft=6;" vertex="1" parent="NRWMTkdjOO6M37qrP40V-47">
          <mxGeometry x="30" width="240" height="80" as="geometry">
            <mxRectangle width="240" height="80" as="alternateBounds" />
          </mxGeometry>
        </mxCell>
        <mxCell id="NRWMTkdjOO6M37qrP40V-50" value="TestReview" style="shape=table;startSize=30;container=1;collapsible=1;childLayout=tableLayout;fixedRows=1;rowLines=0;fontStyle=1;align=center;resizeLast=1;" vertex="1" parent="1">
          <mxGeometry x="370" y="1030" width="270" height="140" as="geometry" />
        </mxCell>
        <mxCell id="NRWMTkdjOO6M37qrP40V-51" value="" style="shape=partialRectangle;collapsible=0;dropTarget=0;pointerEvents=0;fillColor=none;points=[[0,0.5],[1,0.5]];portConstraint=eastwest;top=0;left=0;right=0;bottom=1;" vertex="1" parent="NRWMTkdjOO6M37qrP40V-50">
          <mxGeometry y="30" width="270" height="30" as="geometry" />
        </mxCell>
        <mxCell id="NRWMTkdjOO6M37qrP40V-52" value="" style="shape=partialRectangle;overflow=hidden;connectable=0;fillColor=none;top=0;left=0;bottom=0;right=0;fontStyle=1;" vertex="1" parent="NRWMTkdjOO6M37qrP40V-51">
          <mxGeometry width="30" height="30" as="geometry">
            <mxRectangle width="30" height="30" as="alternateBounds" />
          </mxGeometry>
        </mxCell>
        <mxCell id="NRWMTkdjOO6M37qrP40V-53" value="" style="shape=partialRectangle;overflow=hidden;connectable=0;fillColor=none;top=0;left=0;bottom=0;right=0;align=left;spacingLeft=6;fontStyle=5;" vertex="1" parent="NRWMTkdjOO6M37qrP40V-51">
          <mxGeometry x="30" width="240" height="30" as="geometry">
            <mxRectangle width="240" height="30" as="alternateBounds" />
          </mxGeometry>
        </mxCell>
        <mxCell id="NRWMTkdjOO6M37qrP40V-54" value="" style="shape=partialRectangle;collapsible=0;dropTarget=0;pointerEvents=0;fillColor=none;points=[[0,0.5],[1,0.5]];portConstraint=eastwest;top=0;left=0;right=0;bottom=0;" vertex="1" parent="NRWMTkdjOO6M37qrP40V-50">
          <mxGeometry y="60" width="270" height="80" as="geometry" />
        </mxCell>
        <mxCell id="NRWMTkdjOO6M37qrP40V-55" value="" style="shape=partialRectangle;overflow=hidden;connectable=0;fillColor=none;top=0;left=0;bottom=0;right=0;" vertex="1" parent="NRWMTkdjOO6M37qrP40V-54">
          <mxGeometry width="30" height="80" as="geometry">
            <mxRectangle width="30" height="80" as="alternateBounds" />
          </mxGeometry>
        </mxCell>
        <mxCell id="NRWMTkdjOO6M37qrP40V-56" value="instructorComment" style="shape=partialRectangle;overflow=hidden;connectable=0;fillColor=none;top=0;left=0;bottom=0;right=0;align=left;spacingLeft=6;" vertex="1" parent="NRWMTkdjOO6M37qrP40V-54">
          <mxGeometry x="30" width="240" height="80" as="geometry">
            <mxRectangle width="240" height="80" as="alternateBounds" />
          </mxGeometry>
        </mxCell>
        <mxCell id="NRWMTkdjOO6M37qrP40V-57" value="InterviewDetails" style="shape=table;startSize=30;container=1;collapsible=1;childLayout=tableLayout;fixedRows=1;rowLines=0;fontStyle=1;align=center;resizeLast=1;" vertex="1" parent="1">
          <mxGeometry x="340" y="1280" width="270" height="140" as="geometry" />
        </mxCell>
        <mxCell id="NRWMTkdjOO6M37qrP40V-58" value="" style="shape=partialRectangle;collapsible=0;dropTarget=0;pointerEvents=0;fillColor=none;points=[[0,0.5],[1,0.5]];portConstraint=eastwest;top=0;left=0;right=0;bottom=1;" vertex="1" parent="NRWMTkdjOO6M37qrP40V-57">
          <mxGeometry y="30" width="270" height="30" as="geometry" />
        </mxCell>
        <mxCell id="NRWMTkdjOO6M37qrP40V-59" value="" style="shape=partialRectangle;overflow=hidden;connectable=0;fillColor=none;top=0;left=0;bottom=0;right=0;fontStyle=1;" vertex="1" parent="NRWMTkdjOO6M37qrP40V-58">
          <mxGeometry width="30" height="30" as="geometry">
            <mxRectangle width="30" height="30" as="alternateBounds" />
          </mxGeometry>
        </mxCell>
        <mxCell id="NRWMTkdjOO6M37qrP40V-60" value="" style="shape=partialRectangle;overflow=hidden;connectable=0;fillColor=none;top=0;left=0;bottom=0;right=0;align=left;spacingLeft=6;fontStyle=5;" vertex="1" parent="NRWMTkdjOO6M37qrP40V-58">
          <mxGeometry x="30" width="240" height="30" as="geometry">
            <mxRectangle width="240" height="30" as="alternateBounds" />
          </mxGeometry>
        </mxCell>
        <mxCell id="NRWMTkdjOO6M37qrP40V-61" value="" style="shape=partialRectangle;collapsible=0;dropTarget=0;pointerEvents=0;fillColor=none;points=[[0,0.5],[1,0.5]];portConstraint=eastwest;top=0;left=0;right=0;bottom=0;" vertex="1" parent="NRWMTkdjOO6M37qrP40V-57">
          <mxGeometry y="60" width="270" height="80" as="geometry" />
        </mxCell>
        <mxCell id="NRWMTkdjOO6M37qrP40V-62" value="" style="shape=partialRectangle;overflow=hidden;connectable=0;fillColor=none;top=0;left=0;bottom=0;right=0;" vertex="1" parent="NRWMTkdjOO6M37qrP40V-61">
          <mxGeometry width="30" height="80" as="geometry">
            <mxRectangle width="30" height="80" as="alternateBounds" />
          </mxGeometry>
        </mxCell>
        <mxCell id="NRWMTkdjOO6M37qrP40V-63" value="interviewDate&#xa;interviewNotes" style="shape=partialRectangle;overflow=hidden;connectable=0;fillColor=none;top=0;left=0;bottom=0;right=0;align=left;spacingLeft=6;" vertex="1" parent="NRWMTkdjOO6M37qrP40V-61">
          <mxGeometry x="30" width="240" height="80" as="geometry">
            <mxRectangle width="240" height="80" as="alternateBounds" />
          </mxGeometry>
        </mxCell>
        <mxCell id="NRWMTkdjOO6M37qrP40V-65" value="" style="edgeStyle=entityRelationEdgeStyle;fontSize=12;html=1;endArrow=ERmandOne;startArrow=ERmandOne;rounded=0;entryX=0.004;entryY=0.465;entryDx=0;entryDy=0;exitX=0.996;exitY=0.91;exitDx=0;exitDy=0;exitPerimeter=0;entryPerimeter=0;" edge="1" parent="1" source="C-vyLk0tnHw3VtMMgP7b-27" target="C-vyLk0tnHw3VtMMgP7b-6">
          <mxGeometry width="100" height="100" relative="1" as="geometry">
            <mxPoint x="312" y="253" as="sourcePoint" />
            <mxPoint x="412" y="153" as="targetPoint" />
          </mxGeometry>
        </mxCell>
        <mxCell id="NRWMTkdjOO6M37qrP40V-66" value="0..1" style="text;html=1;align=center;verticalAlign=middle;resizable=0;points=[];autosize=1;strokeColor=none;fillColor=none;" vertex="1" parent="1">
          <mxGeometry x="302" y="239" width="38" height="26" as="geometry" />
        </mxCell>
        <mxCell id="NRWMTkdjOO6M37qrP40V-68" value="1..1" style="text;html=1;align=center;verticalAlign=middle;resizable=0;points=[];autosize=1;strokeColor=none;fillColor=none;" vertex="1" parent="1">
          <mxGeometry x="435" y="243" width="38" height="26" as="geometry" />
        </mxCell>
        <mxCell id="NRWMTkdjOO6M37qrP40V-70" value="1..1" style="text;html=1;align=center;verticalAlign=middle;resizable=0;points=[];autosize=1;strokeColor=none;fillColor=none;" vertex="1" parent="1">
          <mxGeometry x="304" y="182" width="38" height="26" as="geometry" />
        </mxCell>
        <mxCell id="NRWMTkdjOO6M37qrP40V-71" value="1..*" style="text;html=1;align=center;verticalAlign=middle;resizable=0;points=[];autosize=1;strokeColor=none;fillColor=none;" vertex="1" parent="1">
          <mxGeometry x="434" y="184" width="36" height="26" as="geometry" />
        </mxCell>
        <mxCell id="NRWMTkdjOO6M37qrP40V-72" value="Manages&amp;nbsp;" style="text;html=1;align=center;verticalAlign=middle;resizable=0;points=[];autosize=1;strokeColor=none;fillColor=none;" vertex="1" parent="1">
          <mxGeometry x="354" y="161" width="71" height="26" as="geometry" />
        </mxCell>
        <mxCell id="NRWMTkdjOO6M37qrP40V-73" value="" style="endArrow=classic;html=1;rounded=0;" edge="1" parent="1">
          <mxGeometry width="50" height="50" relative="1" as="geometry">
            <mxPoint x="417" y="173.5" as="sourcePoint" />
            <mxPoint x="452" y="173.5" as="targetPoint" />
          </mxGeometry>
        </mxCell>
        <mxCell id="NRWMTkdjOO6M37qrP40V-74" value="" style="edgeStyle=entityRelationEdgeStyle;fontSize=12;html=1;endArrow=ERoneToMany;rounded=0;entryX=0;entryY=0.18;entryDx=0;entryDy=0;entryPerimeter=0;" edge="1" parent="1" target="C-vyLk0tnHw3VtMMgP7b-6">
          <mxGeometry width="100" height="100" relative="1" as="geometry">
            <mxPoint x="311" y="185" as="sourcePoint" />
            <mxPoint x="411" y="85" as="targetPoint" />
          </mxGeometry>
        </mxCell>
        <mxCell id="NRWMTkdjOO6M37qrP40V-75" value="has" style="text;html=1;align=center;verticalAlign=middle;resizable=0;points=[];autosize=1;strokeColor=none;fillColor=none;" vertex="1" parent="1">
          <mxGeometry x="370" y="216" width="37" height="26" as="geometry" />
        </mxCell>
        <mxCell id="NRWMTkdjOO6M37qrP40V-76" value="" style="endArrow=classic;html=1;rounded=0;" edge="1" parent="1">
          <mxGeometry width="50" height="50" relative="1" as="geometry">
            <mxPoint x="401" y="229.5" as="sourcePoint" />
            <mxPoint x="436" y="229.5" as="targetPoint" />
          </mxGeometry>
        </mxCell>
        <mxCell id="NRWMTkdjOO6M37qrP40V-77" value="" style="edgeStyle=entityRelationEdgeStyle;fontSize=12;html=1;endArrow=ERzeroToOne;endFill=1;rounded=0;entryX=-0.004;entryY=0.238;entryDx=0;entryDy=0;entryPerimeter=0;" edge="1" parent="1" target="NRWMTkdjOO6M37qrP40V-19">
          <mxGeometry width="100" height="100" relative="1" as="geometry">
            <mxPoint x="720" y="176" as="sourcePoint" />
            <mxPoint x="820" y="76" as="targetPoint" />
          </mxGeometry>
        </mxCell>
        <mxCell id="NRWMTkdjOO6M37qrP40V-79" value="0..1" style="text;html=1;align=center;verticalAlign=middle;resizable=0;points=[];autosize=1;strokeColor=none;fillColor=none;" vertex="1" parent="1">
          <mxGeometry x="713" y="173" width="38" height="26" as="geometry" />
        </mxCell>
        <mxCell id="NRWMTkdjOO6M37qrP40V-80" value="0..1" style="text;html=1;align=center;verticalAlign=middle;resizable=0;points=[];autosize=1;strokeColor=none;fillColor=none;" vertex="1" parent="1">
          <mxGeometry x="795" y="173" width="38" height="26" as="geometry" />
        </mxCell>
        <mxCell id="NRWMTkdjOO6M37qrP40V-81" value="has" style="text;html=1;align=center;verticalAlign=middle;resizable=0;points=[];autosize=1;strokeColor=none;fillColor=none;" vertex="1" parent="1">
          <mxGeometry x="730" y="150" width="37" height="26" as="geometry" />
        </mxCell>
        <mxCell id="NRWMTkdjOO6M37qrP40V-83" value="" style="endArrow=classic;html=1;rounded=0;exitX=1.027;exitY=0.538;exitDx=0;exitDy=0;exitPerimeter=0;" edge="1" parent="1" source="NRWMTkdjOO6M37qrP40V-81">
          <mxGeometry width="50" height="50" relative="1" as="geometry">
            <mxPoint x="758" y="162" as="sourcePoint" />
            <mxPoint x="802" y="162" as="targetPoint" />
          </mxGeometry>
        </mxCell>
        <mxCell id="NRWMTkdjOO6M37qrP40V-85" value="" style="edgeStyle=entityRelationEdgeStyle;fontSize=12;html=1;endArrow=ERoneToMany;startArrow=ERmandOne;rounded=0;exitX=1;exitY=0.175;exitDx=0;exitDy=0;exitPerimeter=0;" edge="1" parent="1" source="NRWMTkdjOO6M37qrP40V-19">
          <mxGeometry width="100" height="100" relative="1" as="geometry">
            <mxPoint x="969" y="269" as="sourcePoint" />
            <mxPoint x="821" y="399" as="targetPoint" />
            <Array as="points">
              <mxPoint x="945" y="281" />
              <mxPoint x="923" y="309" />
            </Array>
          </mxGeometry>
        </mxCell>
        <mxCell id="NRWMTkdjOO6M37qrP40V-86" value="" style="endArrow=classic;html=1;rounded=0;" edge="1" parent="1">
          <mxGeometry width="50" height="50" relative="1" as="geometry">
            <mxPoint x="916" y="275" as="sourcePoint" />
            <mxPoint x="873" y="275" as="targetPoint" />
          </mxGeometry>
        </mxCell>
        <mxCell id="NRWMTkdjOO6M37qrP40V-87" value="undergoes" style="text;html=1;align=center;verticalAlign=middle;resizable=0;points=[];autosize=1;strokeColor=none;fillColor=none;" vertex="1" parent="1">
          <mxGeometry x="900" y="261" width="75" height="26" as="geometry" />
        </mxCell>
        <mxCell id="NRWMTkdjOO6M37qrP40V-88" value="1..1" style="text;html=1;align=center;verticalAlign=middle;resizable=0;points=[];autosize=1;strokeColor=none;fillColor=none;" vertex="1" parent="1">
          <mxGeometry x="1090" y="168" width="38" height="26" as="geometry" />
        </mxCell>
        <mxCell id="NRWMTkdjOO6M37qrP40V-89" value="1..*" style="text;html=1;align=center;verticalAlign=middle;resizable=0;points=[];autosize=1;strokeColor=none;fillColor=none;" vertex="1" parent="1">
          <mxGeometry x="787" y="402" width="36" height="26" as="geometry" />
        </mxCell>
      </root>
    </mxGraphModel>
  </diagram>
</mxfile>
